<svg xmlns="http://www.w3.org/2000/svg" width="2276.796" height="460.78" viewBox="0 0 2276.796 460.78">
  <g id="Component_Wave" data-name="Component/Wave" transform="translate(0 0)">
    <path id="Wave4" d="M707.147,651.7c137.075,0,264.933-73.783,333.663-192.528L909.988,383.445a234.218,234.218,0,0,1-405.683,0L373.484,459.169C442.214,577.914,570.072,651.7,707.147,651.7Z" transform="translate(1235.986 -190.917)" fill="#f55a47"/>
    <path id="Wave3" d="M670.944,370.453c-137.09,0-264.948,73.783-333.663,192.528L468.1,638.705a234.205,234.205,0,0,1,405.668,0l130.836-75.725C935.876,444.236,808.019,370.453,670.944,370.453Z" transform="translate(735.699 -370.453)" fill="#88bae5"/>
    <path id="Wave2" d="M634.741,651.7c-137.09,0-264.948-73.783-333.663-192.528L431.9,383.445a234.206,234.206,0,0,0,405.669,0l130.821,75.725C899.674,577.914,771.816,651.7,634.741,651.7Z" transform="translate(235.412 -190.917)" fill="#fbcf65"/>
    <path id="Wave1" d="M598.538,370.453c-137.09,0-264.948,73.783-333.663,192.528L395.7,638.705a234.206,234.206,0,0,1,405.669,0L932.186,562.98C863.471,444.236,735.613,370.453,598.538,370.453Z" transform="translate(-264.875 -370.453)" fill="#361972"/>
  </g>
<script xmlns=""/></svg>